<svg width="98" height="28" fill="none" xmlns="http://www.w3.org/2000/svg"><path fill-rule="evenodd" clip-rule="evenodd" d="M60.667 0h3.63v27.482h-3.63V0ZM40.444 18.667c0 2.42 1.275 7.809 6.223 7.259 4.666-.519 5.185-4.667 5.185-4.667h3.63c0 1.556-2.303 6.741-8.815 6.741-7.26 0-10.37-5.704-10.37-9.333 0-3.63 1.036-10.37 10.37-10.37 7.466 0 9.333 6.221 9.333 10.37H40.444Zm11.408-2.074H40.444c.346-2.075 1.037-6.223 6.223-6.223 4.455 0 5.185 5.186 5.185 6.223ZM72.592 0h-3.629v27.482h3.63V0ZM25.927 8.815 27.482 14c.345-1.728 3.63-6.222 7.777-5.185v3.63C32.84 12.098 28 13.17 28 18.147v9.334h-3.63V8.814h1.556Zm67.926 3.63 1.555-3.63h2.075V27.59l-4.149-.11v-3.11C92.642 25.58 90.43 28 87.111 28c-4.148 0-10.37-2.074-10.37-9.852 0-7.778 6.222-10.37 10.37-9.852 3.293.412 5.877 2.766 6.74 4.148Zm-.519 5.703c0-4.978-3.63-7.778-6.222-7.778-3.111 0-6.222 1.97-6.222 7.778S84 25.926 87.11 25.926c2.074 0 6.222-2.8 6.222-7.778ZM0 27.482V1.556h12.444c3.112 0 6.223 1.555 6.223 6.222 0 4.666-4.149 5.704-6.223 6.222 2.42 0 7.26 1.348 7.26 6.74 0 5.393-4.494 6.742-6.741 6.742H0ZM4.148 3.63v9.333h6.74c1.556 0 3.63-2.593 3.63-5.185 0-2.644-2.592-4.148-4.148-4.148H4.148Zm0 11.407v10.37h7.26c1.728-.345 4.148-1.763 4.148-4.666 0-3.63-2.593-5.704-5.186-5.704H4.148Z" fill="#fff"/></svg>