<svg width="26" height="22" fill="none" xmlns="http://www.w3.org/2000/svg"><path d="M8.176 21.563c9.812 0 15.178-8.129 15.178-15.178 0-.23 0-.46-.015-.69A10.853 10.853 0 0 0 26 2.936c-.974.431-2.006.714-3.064.839a5.352 5.352 0 0 0 2.345-2.95 10.687 10.687 0 0 1-3.387 1.294 5.34 5.34 0 0 0-9.09 4.865A15.145 15.145 0 0 1 1.81 1.41 5.338 5.338 0 0 0 3.46 8.53a5.287 5.287 0 0 1-2.421-.667v.068a5.336 5.336 0 0 0 4.28 5.229 5.325 5.325 0 0 1-2.409.091 5.341 5.341 0 0 0 4.984 3.705A10.7 10.7 0 0 1 0 19.166a15.103 15.103 0 0 0 8.176 2.393" fill="#FAFAFA"/></svg>