<svg width="26" height="20" fill="none" xmlns="http://www.w3.org/2000/svg"><path d="M25.482 3.7a3.268 3.268 0 0 0-2.299-2.313C21.15.841 13.025.841 13.025.841S4.9.84 2.868 1.387A3.268 3.268 0 0 0 .569 3.701C.025 5.742.025 10 .025 10s0 4.257.544 6.299a3.268 3.268 0 0 0 2.299 2.313c2.032.547 10.157.547 10.157.547s8.125 0 10.158-.547a3.267 3.267 0 0 0 2.299-2.313c.543-2.042.543-6.3.543-6.3s0-4.257-.543-6.298Z" fill="#FAFAFA"/><path d="M10.367 13.866V6.134L17.163 10l-6.796 3.866Z" fill="#214E41"/></svg>