<svg width="18" height="23" viewBox="0 0 18 23" fill="none" xmlns="http://www.w3.org/2000/svg">
<path d="M12.5482 10.4214C13.2204 10.1324 13.8289 9.76847 14.3405 9.32157C15.3352 8.45277 15.9495 7.28041 15.9495 5.80433C15.9495 4.04062 15.2807 2.68265 14.0643 1.78288C12.871 0.900092 11.2076 0.5 9.27838 0.5H1H0.5V1V21.018V21.518H1H10.16C11.9265 21.518 13.5608 21.0656 14.7635 20.0823C15.9805 19.0873 16.7021 17.5915 16.7021 15.6294C16.7021 13.9598 15.997 12.6044 14.8538 11.6481C14.2034 11.104 13.4178 10.6937 12.5482 10.4214ZM8.33228 2.94995C9.59683 2.94995 10.4848 3.27056 11.0509 3.77332C11.6091 4.26898 11.9177 4.99773 11.9177 5.95582C11.9177 6.90476 11.5822 7.71921 10.9633 8.29865C10.3429 8.87941 9.39362 9.26465 8.09576 9.26465H4.59633V2.94995H8.33228ZM8.69782 19.0248H4.59633V11.931H8.22477C9.62227 11.931 10.6879 12.2754 11.3955 12.8669C12.0905 13.448 12.4983 14.3155 12.4983 15.4995C12.4983 16.5343 12.1559 17.4051 11.5368 18.0167C10.9187 18.6274 9.97855 19.0248 8.69782 19.0248Z" fill="#E3EEED" stroke="#214E41"/>
</svg>
